<svg width="800" height="600" xmlns="http://www.w3.org/2000/svg">

 <g>
  <title>Layer 1</title>
  <rect stroke="#000" id="svg_1" height="179.99999" width="296" y="256" x="220" fill="#fff"/>
  <ellipse stroke="#000" ry="51" rx="65.5" id="svg_2" cy="340" cx="371.5" fill="#fff"/>
  <path stroke="#000" id="svg_5" d="m218.90502,256.12188l148.50001,-130.00003l148.50001,130.00003l-297.00001,0z" fill="#fff"/>
  <path id="svg_6" d="m128.36001,299.99498l0,-91.68748l0,0c0,-39.3848 15.08241,-71.31249 33.6875,-71.31249l0,0l0,0c8.93448,0 17.50303,7.51326 23.82066,20.88695c6.31763,13.37369 9.86683,31.5123 9.86683,50.42555l0,10.1875l9.62499,0l-19.24999,40.75001l-19.25001,-40.75001l9.625,0l0,-10.1875c0,-16.8792 -6.46389,-30.56249 -14.4375,-30.56249l0,0l0,0c-7.97361,0 -14.4375,13.68329 -14.4375,30.56249l0,91.68748l-19.25,0z" stroke="#000" fill="#fff"/>
 </g>
</svg>